<svg id="Layer_1" data-name="Layer 1" xmlns="http://www.w3.org/2000/svg" viewBox="0 0 3860.67 1080"><defs><style>.cls-1{fill:#77439a;}.cls-2{fill:#2a3593;}.cls-3{fill:#ef3f23;}</style></defs><path class="cls-1" d="M3835.67,1075.85a13.93,13.93,0,0,1,0-19.84,14.71,14.71,0,0,1,10.6-4,14.18,14.18,0,0,1,10.33,4,14.12,14.12,0,0,1,0,19.84,14.14,14.14,0,0,1-10.33,4A14.67,14.67,0,0,1,3835.67,1075.85Z"/><path class="cls-2" d="M1379,988a56.23,56.23,0,0,1,21.53-21.53,61.06,61.06,0,0,1,30.59-7.71q19.85,0,34.75,10.17a53.19,53.19,0,0,1,20.86,28.14H1459.4A28.34,28.34,0,0,0,1448,984.39a33.55,33.55,0,0,0-17-4.24,35.07,35.07,0,0,0-18.4,4.83A32.9,32.9,0,0,0,1400,998.63q-4.5,8.82-4.5,20.68a45.08,45.08,0,0,0,4.5,20.6,32.81,32.81,0,0,0,12.54,13.73,35.07,35.07,0,0,0,18.4,4.83,33.09,33.09,0,0,0,17-4.32,28.83,28.83,0,0,0,11.45-12.8h27.29q-5.94,18.14-20.77,28.22t-34.84,10.09a61.06,61.06,0,0,1-30.59-7.71A56.3,56.3,0,0,1,1379,1050.5q-7.89-13.73-7.89-31.19A62,62,0,0,1,1379,988Z"/><path class="cls-2" d="M1540.26,1072.2a58.17,58.17,0,0,1-22-21.61,63.84,63.84,0,0,1,0-62.39,58.17,58.17,0,0,1,22-21.61,63.75,63.75,0,0,1,61.11,0,57.8,57.8,0,0,1,21.87,21.61,64.47,64.47,0,0,1,0,62.39,57.61,57.61,0,0,1-22,21.61,63.57,63.57,0,0,1-61,0Zm49.33-18.22a33.08,33.08,0,0,0,12.71-13.82,45.32,45.32,0,0,0,4.58-20.85,44.87,44.87,0,0,0-4.58-20.77,32.66,32.66,0,0,0-12.71-13.64,36.6,36.6,0,0,0-18.82-4.75,37.05,37.05,0,0,0-18.9,4.75,32.42,32.42,0,0,0-12.8,13.64,44.87,44.87,0,0,0-4.58,20.77,45.32,45.32,0,0,0,4.58,20.85,32.83,32.83,0,0,0,12.8,13.82,36.61,36.61,0,0,0,18.9,4.83A36.16,36.16,0,0,0,1589.59,1054Z"/><path class="cls-2" d="M1758.94,1077.29H1735.2l-53.73-81.21v81.21h-23.74V958.79h23.74l53.73,81.37V958.79h23.74Z"/><path class="cls-2" d="M1892.36,1077.29h-23.74l-53.73-81.21v81.21h-23.74V958.79h23.74l53.73,81.37V958.79h23.74Z"/><path class="cls-2" d="M1948.3,978.12v29.66h39.83v18.82H1948.3V1058h44.92v19.33h-68.66V958.79h68.66v19.33Z"/><path class="cls-2" d="M2025.68,988a56.3,56.3,0,0,1,21.53-21.53,61.12,61.12,0,0,1,30.6-7.71q19.83,0,34.75,10.17a53.17,53.17,0,0,1,20.85,28.14h-27.29a28.22,28.22,0,0,0-11.45-12.71,33.5,33.5,0,0,0-17-4.24,35,35,0,0,0-18.39,4.83,32.92,32.92,0,0,0-12.55,13.65,49.68,49.68,0,0,0,0,41.28,32.84,32.84,0,0,0,12.55,13.73,35,35,0,0,0,18.39,4.83,33,33,0,0,0,17-4.32,28.72,28.72,0,0,0,11.45-12.8h27.29q-5.92,18.14-20.76,28.22t-34.84,10.09a61.12,61.12,0,0,1-30.6-7.71,56.37,56.37,0,0,1-21.53-21.45q-7.87-13.73-7.88-31.19A62.07,62.07,0,0,1,2025.68,988Z"/><path class="cls-2" d="M2243.09,958.79V978h-31.53v99.17h-23.73V978H2156.3V958.79Z"/><path class="cls-3" d="M2368.71,988a56.3,56.3,0,0,1,21.53-21.53,61.1,61.1,0,0,1,30.6-7.71q19.83,0,34.75,10.17a53.22,53.22,0,0,1,20.85,28.14h-27.29a28.28,28.28,0,0,0-11.45-12.71,33.52,33.52,0,0,0-17-4.24,35.07,35.07,0,0,0-18.4,4.83,33,33,0,0,0-12.54,13.65q-4.5,8.82-4.49,20.68a45.08,45.08,0,0,0,4.49,20.6,32.88,32.88,0,0,0,12.54,13.73,35.07,35.07,0,0,0,18.4,4.83,33.07,33.07,0,0,0,17-4.32,28.78,28.78,0,0,0,11.45-12.8h27.29q-5.94,18.14-20.76,28.22t-34.84,10.09a61.1,61.1,0,0,1-30.6-7.71,56.37,56.37,0,0,1-21.53-21.45q-7.89-13.73-7.89-31.19A62,62,0,0,1,2368.71,988Z"/><path class="cls-3" d="M2530,1072.2a58.25,58.25,0,0,1-22-21.61,63.84,63.84,0,0,1,0-62.39,58.25,58.25,0,0,1,22-21.61,63.75,63.75,0,0,1,61.11,0A57.8,57.8,0,0,1,2613,988.2a64.4,64.4,0,0,1,0,62.39A57.59,57.59,0,0,1,2591,1072.2a63.59,63.59,0,0,1-61,0Zm49.33-18.22a33,33,0,0,0,12.71-13.82,45.32,45.32,0,0,0,4.59-20.85,44.87,44.87,0,0,0-4.59-20.77,32.53,32.53,0,0,0-12.71-13.64,36.57,36.57,0,0,0-18.81-4.75,37.09,37.09,0,0,0-18.91,4.75,32.48,32.48,0,0,0-12.8,13.64,44.87,44.87,0,0,0-4.58,20.77,45.32,45.32,0,0,0,4.58,20.85,32.89,32.89,0,0,0,12.8,13.82,36.64,36.64,0,0,0,18.91,4.83A36.12,36.12,0,0,0,2579.34,1054Z"/><path class="cls-3" d="M2720,1054.74h-47.13l-7.79,22.55H2640.2l42.54-118.5h27.64l42.55,118.5h-25.09Zm-6.44-19-17.12-49.5-17.12,49.5Z"/><path class="cls-3" d="M2779.8,988a56.23,56.23,0,0,1,21.53-21.53,61.09,61.09,0,0,1,30.59-7.71q19.85,0,34.76,10.17a53.22,53.22,0,0,1,20.85,28.14h-27.29a28.28,28.28,0,0,0-11.45-12.71,33.52,33.52,0,0,0-17-4.24,35.07,35.07,0,0,0-18.4,4.83,33,33,0,0,0-12.54,13.65q-4.5,8.82-4.5,20.68a45.08,45.08,0,0,0,4.5,20.6,32.88,32.88,0,0,0,12.54,13.73,35.07,35.07,0,0,0,18.4,4.83,33.07,33.07,0,0,0,17-4.32,28.78,28.78,0,0,0,11.45-12.8h27.29q-5.94,18.14-20.77,28.22t-34.84,10.09a61.09,61.09,0,0,1-30.59-7.71,56.3,56.3,0,0,1-21.53-21.45q-7.89-13.73-7.89-31.19A62,62,0,0,1,2779.8,988Z"/><path class="cls-3" d="M3014.84,958.79v118.33H2991.1v-50.35h-50.68v50.35h-23.74V958.79h23.74v48.65h50.68V958.79Z"/><path class="cls-1" d="M3146.56,988a56.27,56.27,0,0,1,21.52-21.53,61.12,61.12,0,0,1,30.6-7.71q19.84,0,34.75,10.17a53.19,53.19,0,0,1,20.86,28.14H3227a28.34,28.34,0,0,0-11.45-12.71,33.55,33.55,0,0,0-17-4.24,35.07,35.07,0,0,0-18.4,4.83,32.9,32.9,0,0,0-12.54,13.65q-4.5,8.82-4.5,20.68a45.08,45.08,0,0,0,4.5,20.6,32.81,32.81,0,0,0,12.54,13.73,35.07,35.07,0,0,0,18.4,4.83,33.09,33.09,0,0,0,17-4.32,28.83,28.83,0,0,0,11.45-12.8h27.29q-5.94,18.14-20.77,28.22t-34.84,10.09a61.12,61.12,0,0,1-30.6-7.71,56.34,56.34,0,0,1-21.52-21.45q-7.89-13.73-7.89-31.19A62,62,0,0,1,3146.56,988Z"/><path class="cls-1" d="M3344.47,1077.12l-26.1-46.11h-11.19v46.11h-23.74V958.79h44.42q13.74,0,23.4,4.83a33.8,33.8,0,0,1,14.49,13,35.68,35.68,0,0,1,4.83,18.4,35.23,35.23,0,0,1-6.78,21.1q-6.8,9.41-20.18,13l28.32,48Zm-37.29-63.91H3327c6.45,0,11.24-1.56,14.41-4.67s4.75-7.42,4.75-13-1.59-9.64-4.75-12.63-8-4.5-14.41-4.5h-19.83Z"/><path class="cls-1" d="M3424.66,978.12v29.66h39.84v18.82h-39.84V1058h44.92v19.33h-68.66V958.79h68.66v19.33Z"/><path class="cls-1" d="M3572.48,1054.74h-47.13l-7.79,22.55h-24.92l42.54-118.5h27.64l42.55,118.5h-25.09Zm-6.44-19-17.12-49.5-17.12,49.5Z"/><path class="cls-1" d="M3710.64,958.79V978h-31.53v99.17h-23.73V978h-31.54V958.79Z"/><path class="cls-1" d="M3760.48,978.12v29.66h39.84v18.82h-39.84V1058h44.92v19.33h-68.66V958.79h68.66v19.33Z"/><path class="cls-2" d="M1648,285.18l.26,103.36H1498l-.26,460.5h-113.1l.26-460.5H1234.62l-.26-103.36Z"/><path class="cls-2" d="M1906.06,409.52q35.14-20.17,80.38-20.19V513.79h-29.89q-53.33,0-80.38,25t-27.06,87.25V849H1736V388.54h113.1V471C1863.65,447.28,1882.63,423,1906.06,409.52Z"/><path class="cls-2" d="M2480.83,651.93H2153.65q4,48.47,33.93,75.94t73.52,27.46q63,0,89.67-54.12h122q-19.39,64.63-74.32,106.22T2263.52,849q-64.65,0-115.93-28.68t-80-81.19q-28.7-52.5-28.68-121.17,0-69.46,28.27-122t79.17-80.78Q2197.27,387,2263.52,387q63.8,0,114.31,27.47a193.43,193.43,0,0,1,78.36,78q27.86,50.49,27.87,115.92A268.57,268.57,0,0,1,2480.83,651.93ZM2366.92,576q-.83-43.63-31.51-69.88t-75.12-26.26q-42,0-70.69,25.45T2154.46,576Z"/><path class="cls-2" d="M2570.09,496q27-52.5,73.5-80.78T2747.4,387q50.07,0,87.65,20.2t60.19,50.89V388.54h113.89V841.77H2895.24V776.34q-21.82,31.5-60.19,52.1T2746.59,849q-56.57,0-103-29.08t-73.5-82Q2543,685.07,2543,616.38,2543,548.54,2570.09,496Zm309,51.29q-16.17-29.47-43.62-45.23a116.62,116.62,0,0,0-59-15.76,114.69,114.69,0,0,0-58.17,15.35q-26.66,15.36-43.21,44.84t-16.56,69.87q0,40.41,16.56,70.69t43.62,46.45a110.72,110.72,0,0,0,57.76,16.16,116.62,116.62,0,0,0,59-15.76q27.45-15.75,43.62-45.23T2895.24,618Q2895.24,576.79,2879.07,547.31Z"/><path class="cls-2" d="M3257.14,481.44V710.9q0,22.62,10.9,32.72t36.76,10.1h52.51V849h-71.1q-143,0-143-138.95V481.44h-53.31v-92.9h53.31V285.61h113.91V388.54h100.17v92.9Z"/><path class="cls-2" d="M3857.34,651.93H3530.17q4,48.47,33.92,75.94t73.52,27.46q63,0,89.67-54.12h122q-19.38,64.63-74.32,106.22T3640,849q-64.64,0-115.92-28.68t-80-81.19q-28.68-52.5-28.67-121.17,0-69.46,28.27-122t79.16-80.78Q3573.8,387,3640,387q63.81,0,114.31,27.47a193.37,193.37,0,0,1,78.36,78q27.87,50.49,27.87,115.92A267.45,267.45,0,0,1,3857.34,651.93ZM3743.44,576q-.83-43.63-31.51-69.88t-75.13-26.26q-42,0-70.68,25.45T3531,576Z"/><path class="cls-1" d="M902.4,735.16c0,187.85-152.07,340.08-339.88,340.37C374.71,1075.24,222.64,923,222.64,735.16a324.38,324.38,0,0,1,8.08-73A339,339,0,0,1,391.16,441.9a71,71,0,0,0,10.76-6.06,110.43,110.43,0,0,0,38-40.68h68V636a36.28,36.28,0,0,1-6.76,4A112.36,112.36,0,0,0,449,735.16a113.53,113.53,0,1,0,227.06,0A112.36,112.36,0,0,0,623.94,640a36.28,36.28,0,0,1-6.76-4V395.16h68a110.35,110.35,0,0,0,38,40.68,71,71,0,0,0,10.76,6.06A339,339,0,0,1,894.32,662.2,324.38,324.38,0,0,1,902.4,735.16Z"/><path class="cls-3" d="M1125,340.33c0,149.35-96.54,276.48-230.72,321.87A339,339,0,0,0,733.88,441.9,112,112,0,0,0,784.67,454c62.9,0,114-50.78,114-113.69a114.11,114.11,0,0,0-114-114,112.51,112.51,0,0,0-99.18,58.87H450.68a338.54,338.54,0,0,1,111.84-201c.16-.17.33-.29.49-.46-.16-.12-.33-.29-.49-.41A336.94,336.94,0,0,1,784.67,0C972.68,0,1125,152.32,1125,340.33Z"/><path class="cls-2" d="M562.52,84.18c.16-.17.33-.29.49-.46-.16-.12-.33-.29-.49-.41A336.94,336.94,0,0,0,340.37,0C152.36,0,0,152.32,0,340.33,0,489.68,96.54,616.81,230.72,662.2A339,339,0,0,1,391.16,441.9,112,112,0,0,1,340.37,454c-62.9,0-114-50.78-114-113.69a114.11,114.11,0,0,1,114-114,112.52,112.52,0,0,1,99.18,58.87H674.36A338.54,338.54,0,0,0,562.52,84.18Z"/><rect class="cls-1" x="3831.52" y="1050.68" width="29.15" height="29.15"/><rect class="cls-3" x="3042.82" y="1050.68" width="29.15" height="29.15"/><rect class="cls-2" x="2264.97" y="1050.68" width="29.15" height="29.15"/></svg>