<svg xmlns="http://www.w3.org/2000/svg" viewBox="0 0 316.29 219.49"><defs><style>.cls-1{isolation:isolate;}.cls-2{fill:#613380;}.cls-3{fill:#749;}.cls-4{fill:#fff;opacity:0.1;mix-blend-mode:lighten;}.cls-5{fill:#5056bb;}.cls-6{fill:#656bd2;}.cls-7{fill:#ec3f24;}.cls-8{opacity:0.25;}.cls-9{fill:#717ddb;}.cls-10{fill:#7c4e9d;}.cls-11{fill:#973a2b;}.cls-12{fill:#804840;}.cls-13{fill:#de7e6f;}.cls-14{fill:#4c5fcd;}.cls-15{fill:#001772;}.cls-16{fill:#6e81e8;}.cls-17{fill:#534080;}.cls-18{fill:#b673e6;}.cls-19{fill:#704080;}.cls-20{fill:#754399;}.cls-21{fill:#373f8c;}.cls-22{fill:#333a7f;}.cls-23{fill:#3f4991;}.cls-24{fill:#5d66d3;}.cls-25{fill:#474ebb;}.cls-26{fill:#d67086;}</style></defs><g class="cls-1"><g id="Layer_2" data-name="Layer 2"><g id="Layer_1-2" data-name="Layer 1"><polygon class="cls-2" points="300.74 127.68 300.74 147.7 285.43 154.93 285.43 134.92 300.74 127.68"/><path class="cls-3" d="M300.74,127.68l-15.31,7.24L270,127.68l14.66-7.06a1.8,1.8,0,0,1,1.54,0Z"/><polygon class="cls-3" points="285.43 134.92 285.43 154.93 270 147.7 270 127.68 285.43 134.92"/><path class="cls-4" d="M300.74,127.68l-15.31,7.24L270,127.68l14.66-7.06a1.8,1.8,0,0,1,1.54,0Z"/><path class="cls-2" d="M316.29,154.93V173.8a1.79,1.79,0,0,1-1,1.63l-14.52,6.75v-20Z"/><polygon class="cls-3" points="300.74 162.16 300.74 182.18 285.43 174.94 285.43 154.93 300.74 162.16"/><polygon class="cls-3" points="316.29 154.93 300.74 162.16 285.43 154.93 300.74 147.7 316.29 154.93"/><polygon class="cls-4" points="316.29 154.93 300.74 162.16 285.43 154.93 300.74 147.7 316.29 154.93"/><polygon class="cls-2" points="285.43 154.93 285.43 174.94 270 182.18 270 162.16 285.43 154.93"/><path class="cls-3" d="M270,162.17v20l-14.4-6.75a1.8,1.8,0,0,1-1-1.63V154.93Z"/><polygon class="cls-3" points="285.43 154.93 270 162.16 254.56 154.93 270 147.7 285.43 154.93"/><polygon class="cls-4" points="285.43 154.93 270 162.16 254.56 154.93 270 147.7 285.43 154.93"/><polygon class="cls-5" points="55.8 120.15 55.8 144.34 37.3 153.08 37.3 128.89 55.8 120.15"/><path class="cls-6" d="M55.8,120.15l-18.5,8.74-18.65-8.74,17.72-8.54a2.24,2.24,0,0,1,1.86,0Z"/><polygon class="cls-6" points="37.3 128.89 37.3 153.08 18.65 144.34 18.65 120.15 37.3 128.89"/><path class="cls-4" d="M55.8,120.15l-18.5,8.74-18.65-8.74,17.72-8.54a2.24,2.24,0,0,1,1.86,0Z"/><path class="cls-5" d="M74.6,153.08v22.79a2.18,2.18,0,0,1-1.26,2L55.8,186V161.82Z"/><polygon class="cls-6" points="55.8 161.82 55.8 186 37.3 177.26 37.3 153.08 55.8 161.82"/><polygon class="cls-6" points="74.6 153.08 55.8 161.82 37.3 153.08 55.8 144.34 74.6 153.08"/><polygon class="cls-4" points="74.6 153.08 55.8 161.82 37.3 153.08 55.8 144.34 74.6 153.08"/><polygon class="cls-5" points="37.3 153.08 37.3 177.26 18.65 186 18.65 161.82 37.3 153.08"/><path class="cls-6" d="M18.65,161.82V186l-17.4-8.15a2.19,2.19,0,0,1-1.25-2V153.08Z"/><polygon class="cls-6" points="37.3 153.08 18.65 161.82 0 153.08 18.65 144.34 37.3 153.08"/><polygon class="cls-4" points="37.3 153.08 18.65 161.82 0 153.08 18.65 144.34 37.3 153.08"/><polygon class="cls-7" points="173.16 113.92 173.16 132.82 158.7 139.66 158.7 120.75 173.16 113.92"/><path class="cls-7" d="M173.16,113.91l-14.46,6.84-14.58-6.84L158,107.24a1.77,1.77,0,0,1,1.46,0Z"/><polygon class="cls-7" points="158.7 120.75 158.7 139.66 144.12 132.82 144.12 113.92 158.7 120.75"/><path class="cls-4" d="M173.16,113.91l-14.46,6.84-14.58-6.84L158,107.24a1.77,1.77,0,0,1,1.46,0Z"/><path class="cls-7" d="M187.86,139.66v17.82a1.71,1.71,0,0,1-1,1.55l-13.72,6.37V146.49Z"/><polygon class="cls-7" points="173.16 146.49 173.16 165.4 158.7 158.57 158.7 139.66 173.16 146.49"/><polygon class="cls-7" points="187.86 139.66 173.16 146.49 158.7 139.66 173.16 132.82 187.86 139.66"/><polygon class="cls-4" points="187.86 139.66 173.16 146.49 158.7 139.66 173.16 132.82 187.86 139.66"/><polygon class="cls-7" points="158.7 139.66 158.7 158.57 144.12 165.4 144.12 146.49 158.7 139.66"/><path class="cls-7" d="M144.12,146.49V165.4L130.52,159a1.71,1.71,0,0,1-1-1.55V139.66Z"/><polygon class="cls-7" points="158.7 139.66 144.12 146.49 129.54 139.66 144.12 132.82 158.7 139.66"/><polygon class="cls-4" points="158.7 139.66 144.12 146.49 129.54 139.66 144.12 132.82 158.7 139.66"/><g class="cls-8"><path class="cls-9" d="M149,190a230.71,230.71,0,0,0-24.08,1.09c-3,.33-6,1-9,1.34-6.06.59-12,1.67-18.07,2.18-4.89.4-9.81.64-14.68,1.15A53,53,0,0,1,69,195.34a95.82,95.82,0,0,1-10-1.87,41.9,41.9,0,0,0-11.55-1.78c-5.49,0-10.84,0-16.09,1.91a15.91,15.91,0,0,0-5.5,3.1c-3.2,3.15-3.64,11-.44,14.26,5.39,5.49,16.9,7.64,24.45,7.74,8.28.11,16.32-.49,24.62-.84,7.7-.33,15.39-.8,23.1-.78,15.76,0,31.53,0,47.26-1,14.78-1,29.6-.64,44.42-.64,15.19,0,30.28.12,45.36,2.1,6.57.86,13.26,1.16,19.87,1.76,5.91.54,11.6,0,17.49-.51A42.5,42.5,0,0,0,286.3,215c3.56-1.67,9.9-6.84,11-10.81,3.06-11.13-43.1-10.86-50.19-10.84-7.92,0-15.92.29-23.84,0a56.93,56.93,0,0,1-9.87-1.46c-3.24-.69-6.5-.52-9.79-.81-13.7-1.22-27.43-1-41.17-1C158,190,153.48,190,149,190Z"/></g><polygon class="cls-10" points="258.98 142.61 259.04 144.6 255.53 145.88 253.5 144.35 253.5 142.03 255.46 141.92 255.52 141.41 256.16 141 258.98 142.61"/><polygon class="cls-7" points="193.39 158.69 194.14 176.2 191.93 205.98 188.62 206.22 184.59 179.17 179.03 156.28 193.39 158.69"/><path class="cls-11" d="M188.8,208.44h4a1.1,1.1,0,0,0,1.1-1h0a1.11,1.11,0,0,0-.47-1.05l-1.23-.85-3.58.25Z"/><polygon class="cls-7" points="169.94 153.48 169.21 166.72 171.37 206.08 174.69 206.25 179.66 180.43 184.04 152.12 169.94 153.48"/><path class="cls-11" d="M173.59,208.61l-3.1.13a1.07,1.07,0,0,1-1-.7h0a1,1,0,0,1,.29-1.13l1-.94a1,1,0,0,1,.76-.27l2.1.1a1.06,1.06,0,0,1,1,1.1l0,.71A1.05,1.05,0,0,1,173.59,208.61Z"/><path class="cls-12" d="M189.22,113.49l-10.34-1.11s-5.76.62-9.67,14.29c-2.17,7.61-2.83,19.59-3,28.73.24,1.3,1.66,7,7.67,6,10.31-1.66,15.8-3.32,20.29-2.49,3.82.83,3.5-4.44,3.08-8.46l-1.53-12.43Z"/><path class="cls-13" d="M187.23,100.61a19.49,19.49,0,0,0-7.91-.58,2.18,2.18,0,0,0-1.49.81,2.3,2.3,0,0,0-.25.63c-.66,2.45-1.49,6.08.12,8.34a4.15,4.15,0,0,0,1.16,1,5.7,5.7,0,0,0,1.93.75,10,10,0,0,1-.58,1.78c.6.9,3.38,1,3.9.15,0-.75.06-1.5.08-2.24a6.08,6.08,0,0,0,1-.51,6.28,6.28,0,0,0,2.43-3.31c.5-1.44,1.19-2.82,1.65-4.3a2.12,2.12,0,0,0,0-1.64,2.2,2.2,0,0,0-1.54-.82Z"/><path class="cls-7" d="M188.37,107.41c1.25-1.29,2.72-3.09,2.83-4.72a7.67,7.67,0,0,0-.85-4.37c-.71-1.09-2.52-1.69-3.6-2.32l-3-1.79a1.9,1.9,0,0,0-.67-.29,2.09,2.09,0,0,0-.86.09L175,95.87c-.46.12-1,.3-1.16.74a1.57,1.57,0,0,0,0,.86,35.92,35.92,0,0,1,.93,3.78c.2,1,.16,1.89.89,2.62s1.59,1.06,2.14,1.9a15.93,15.93,0,0,1,.86,2c1.41,3,7.1,2.17,9.07.28C187.93,107.85,188.15,107.64,188.37,107.41Z"/><path class="cls-12" d="M187.34,114l6.57-7.1a.81.81,0,0,0,.21-.59l-1.61-19.94a.8.8,0,0,1,.47-.78l1.81-.79a.78.78,0,0,1,1.07.48l6.23,19.87a.78.78,0,0,1,0,.5l-2.19,6.1a1.28,1.28,0,0,1-.11.2l-8.56,11.5a.78.78,0,0,1-1.37-.23l-2.68-8.45A.78.78,0,0,1,187.34,114Z"/><path class="cls-13" d="M194.85,84.81a.13.13,0,0,0,.07-.12V82.87c0-.69-1.75-2.32-2.19-2.9-.26-.33-1.42,1.48-1.44,1.78,0,.51.72,1.61.92,2.14l-.62.89.82,1s.29.49.34.46Z"/><path class="cls-12" d="M173.47,115.28l-6.59-5.48a1.88,1.88,0,0,1-.67-1.34l-.94-18.73a1.87,1.87,0,0,0-1.34-1.7h0a1.87,1.87,0,0,0-2.36,1.47l-3,17.11a7.46,7.46,0,0,0,.72,4.71l1.87,3.61a1.8,1.8,0,0,0,.31.45l8.4,8.66a1.87,1.87,0,0,0,3.18-1l1.07-6A1.87,1.87,0,0,0,173.47,115.28Z"/><path class="cls-13" d="M162.25,88.41s.14-2.62.13-2.65c-.09-.69,1.44-2.52,1.81-3.16.2-.36,1.6,1.28,1.65,1.58a9.13,9.13,0,0,1-.63,2.24l.73.8-1.11,1.94Z"/><path class="cls-14" d="M41.59,102.64a18.63,18.63,0,0,1-3.65-2.35c-.36-.3-.74-.73-.62-1.18s.83-.63,1.37-.59a7.61,7.61,0,0,1,2.91.87c.22-.07-.06-.43,0-.64a.35.35,0,0,1,.27-.14c1.46-.08,2,1.9,2.53,2.86-1,.53-2.08.55-3,1.36Z"/><path class="cls-14" d="M104,126.21l1.89.28c.69.1,3.7-1.42,4.34-1.77.36-.21-2.41-1.6-2.7-1.66a8.56,8.56,0,0,0-2.25.6l-.79-.75-1.2.72Z"/><path class="cls-15" d="M57.81,203.9l-.26,2,2.8,1.88a1.7,1.7,0,0,0,2-.06h0a1.69,1.69,0,0,0,.3-2.37l-.74-1-3.82-2.56Z"/><polygon class="cls-15" points="57.68 203.21 60.62 177.19 57.08 148.06 57.88 141.87 73.7 141.27 74.27 151.35 71.62 177.23 61.62 204.54 57.68 203.21"/><polygon class="cls-16" points="76.22 113.04 83.33 117.22 88.98 125.13 104.01 122.95 104.48 127.09 87.41 132.78 78.66 129.51 76.22 113.04"/><polygon class="cls-15" points="85.31 144.18 85.36 170.44 80.07 204.24 76.27 204.21 74.17 172.94 69.28 141.66 85.31 144.18"/><path class="cls-15" d="M76.27,205.81l3,1.56a1.62,1.62,0,0,0,1.88-.28h0a1.74,1.74,0,0,0,0-2.46l-.82-.84-4.12,0Z"/><path class="cls-16" d="M55.44,153.11c0-1.14.1-2.08.11-2.42.08-3.06.36-6.1.74-9.13.34-2.72.77-9.46,1.24-12.16a58,58,0,0,1,2.68-9.86c2.41-5.14,1.67-5.61,12.22-7.14,4.63-.67,5.72,2.21,9.5,5.53.37.33.35,2.27.44,2.79.15.91.32,1.81.5,2.71.15.71.31,1.42.49,2.12h0s3.18,14.45,5.28,17.52,6.44,7.36-.82,10a26.57,26.57,0,0,1-3.92,1s-5.93-.66-9-.64a52.49,52.49,0,0,0-8.4.78,18,18,0,0,0-5.39,1.63c-1.57.82-2.71,2-4.31,2.88a.8.8,0,0,1-.49.14C55.41,158.74,55.37,155.51,55.44,153.11Z"/><path class="cls-14" d="M71.48,113.73a4.3,4.3,0,0,1-3,.76.71.71,0,0,1-.61-.51,18.56,18.56,0,0,1-.51-2.3c-1-.05-2.28-.21-2.75-1.14-.29-.58-.17-1.31-.44-1.84l-.25-2.08c.1-.75-.27-1.65,0-2.47a3,3,0,0,1,1.68-1.71,7.33,7.33,0,0,1,6.1-.36,3.27,3.27,0,0,1,1.35,1,4.35,4.35,0,0,1,.6,2.47c0,.8.07,1.59.1,2.39a3,3,0,0,1-.7,2.54c-.38.3-.91.41-1.23.78C71.21,111.88,71.62,112.88,71.48,113.73Z"/><path class="cls-15" d="M79,97.47a9.12,9.12,0,0,1,.36-1.12,18.18,18.18,0,0,0,1-2.33,2.19,2.19,0,0,0-.64-2.29,2.55,2.55,0,0,0-1.56-.36A10,10,0,0,0,73,92.84c-1.46.89-2.67,2-4.44,1.88a5.63,5.63,0,0,0-4.08,1.5c-1.5,1.13-3.73,2-5,3.29a4.76,4.76,0,0,0-1.08,2,7.15,7.15,0,0,0,2.19,7.21,11.27,11.27,0,0,0,1.47,1,7.74,7.74,0,0,0,3.55,1.38c-.28-1-2.12-3.82-1.62-4.85.81-1.65,3.65-2,5.24-2.18s3.52.55,5.2.3a6.27,6.27,0,0,0,3.31-2.09C78.74,101.18,78.64,98.85,79,97.47Z"/><polygon class="cls-16" points="63.2 114.66 54.89 116.79 44.9 101.25 40.67 102.39 47.71 124.77 63.9 126.71 63.2 114.66"/><path class="cls-17" d="M265.28,200.89a1.39,1.39,0,0,1,1.27-.54,1.43,1.43,0,0,1,1.07.8,2.64,2.64,0,0,1,.18.92c.14,1.61.12,5.44-2,6a1.6,1.6,0,0,1-1.89-1.22A8.51,8.51,0,0,1,265.28,200.89Z"/><path class="cls-18" d="M264.51,176.56l.12,9.84c-.13,4.37.55,8.76.42,13.13a11.21,11.21,0,0,0,0,3.06c.25,1,1,1.15,1.85.66,1.09-.66.91-2.21,1.1-3.33.49-3.1,1.08-6.18,1.6-9.27.25-1.51-.27-3.64-.16-5.17l1.59-8.25Z"/><path class="cls-17" d="M275.33,162.56l-3.55,15.78a15.6,15.6,0,0,0-.38,2.73l-.72,14.28a2.38,2.38,0,0,1-2.41,2.25l-2.21,0a2.44,2.44,0,0,1-2.37-2.34l-1.76-48,13.16.24.57,11.24A14.53,14.53,0,0,1,275.33,162.56Z"/><path class="cls-17" d="M255.57,200.54a1.39,1.39,0,0,1,1.29-.48,1.46,1.46,0,0,1,1,.87,2.69,2.69,0,0,1,.14.93c.07,1.62-.11,5.45-2.27,5.88a1.64,1.64,0,0,1-1.84-1.33A8.39,8.39,0,0,1,255.57,200.54Z"/><path class="cls-18" d="M259.15,177.94l-.58,9.82c-.05,2.73-.41,5.44-.69,8.15-.27,2.52.14,5.14-1.17,7.43-.42.72-1.25,1.2-1.83.33-.45-.67-.19-1.8-.27-2.56-.35-3.11-.79-6.22-1.17-9.33-.18-1.52.45-3.62.4-5.16l-1.19-8.31Z"/><path class="cls-17" d="M250.49,161.68l-.41,13.79a26.72,26.72,0,0,0,.31,5l2.13,13.77a3,3,0,0,0,2.84,2.5l1.81,0a2.52,2.52,0,0,0,2.6-2.56l-.27-17.56,3.66-16.76,1.22-11-11-1.29-2.35,9.76A20.79,20.79,0,0,0,250.49,161.68Z"/><polygon class="cls-19" points="259.22 109.83 271.03 109.55 277.87 122.28 275.44 134.21 275.01 148.47 258.17 148.71 252.63 147.81 254.1 132.56 253.25 112.19 259.22 109.83"/><path class="cls-18" d="M260.77,98.82c2.32-5,8.91-2.3,9.81,2.44.6,3.08-2.13,6.71-5.32,7.24,0,.11-.37,1.12-.38,1.21a9.9,9.9,0,0,1-.28,1.42,16.37,16.37,0,0,1-3-.73.4.4,0,0,1-.26-.17,9.05,9.05,0,0,1,.5-1.75c0-.22.09-.44.14-.66a5.39,5.39,0,0,1-2.34-4.25A10,10,0,0,1,260.77,98.82Z"/><path class="cls-17" d="M265.7,94.65a2.74,2.74,0,0,1,.47,1.44,2.08,2.08,0,0,1-.05.9c-.38,1.14-1.53,1-2.46,1.24a6,6,0,0,0-2.93,2c-1.13,1.44-.91,3.47-.7,5.21.07.62.26,1.54-.27,2a2,2,0,0,1-2.14,0c-.49-.31-.87-.83-1.42-1s-1.43,0-1.65-.57c-.07-.16-.05-.35-.14-.5-.28-.51-1.16-.05-1.59-.43a.9.9,0,0,1-.08-1,2.44,2.44,0,0,0,.3-1,3.51,3.51,0,0,0-.32-.87,1.62,1.62,0,0,1,.41-1.69c.83-.77,2.24-.46,3.12-1.18a3.49,3.49,0,0,0,.9-1.52,3.06,3.06,0,0,1,1-1.48c.59-.42,1.37-.25,2-.76a10.06,10.06,0,0,1,1-1,6.84,6.84,0,0,1,2.05-.66A2.53,2.53,0,0,1,265.7,94.65Z"/><path class="cls-17" d="M269.11,103.32c-.15,1.7-1.19,3.44-.57,5s2.56,2.07,4.23,2.33c.27,0,3.77.73,3.79.66a11.47,11.47,0,0,1,1.52-3.29,3.77,3.77,0,0,1,3-1.66.73.73,0,0,1-.38-.88,4.94,4.94,0,0,1,.43-1,2.39,2.39,0,0,0-.36-2.45c-1.12-1.3-3.44-1.06-4.37-2.51-.57-.9-.36-2.09-.6-3.14-.46-2-2.56-2.67-4.07-3.73A7.7,7.7,0,0,0,266.66,91c-2.46.14-4.52,2.41-3.84,4.83.88,3.1,5.69,3.35,6.26,6.47A3.79,3.79,0,0,1,269.11,103.32Z"/><polygon class="cls-20" points="267.54 109.77 263.87 114.94 262.15 114.8 259.28 109.55 267.54 109.77"/><path class="cls-19" d="M259.28,109.55l-5.68.31a5.1,5.1,0,0,0-1.84.47c-2,1-6.71,3.2-7.1,3s-6.5-12.31-8.15-15.61a1.07,1.07,0,0,0-1.3-.54l-2.3.74a.86.86,0,0,0-.56,1l4.54,17a2.85,2.85,0,0,0,.69,1.22l3.53,3.64a2,2,0,0,0,1.81.6l12.45-2.07Z"/><path class="cls-18" d="M232.76,97.93l-1.07-1.58c-.38-.58.17-2.91.21-3.64,0-.42,2,.44,2.19.68a9.32,9.32,0,0,1,.43,2.29l1,.39-.13,1.39Z"/><polygon class="cls-21" points="92.94 50.05 72.14 40.66 72.14 15.64 92.94 25.04 92.94 50.05"/><polygon class="cls-22" points="92.94 50.05 113.74 40.66 113.74 15.64 92.94 25.04 92.94 50.05"/><polygon class="cls-23" points="72.14 15.64 92.94 25.04 113.74 15.64 92.94 7.1 72.14 15.64"/><polygon class="cls-24" points="259.06 36.09 241.57 28.19 241.57 7.17 259.06 15.07 259.06 36.09"/><polygon class="cls-25" points="259.06 36.09 276.53 28.19 276.53 7.17 259.06 15.07 259.06 36.09"/><polygon class="cls-9" points="241.57 7.17 259.06 15.07 276.53 7.17 259.06 0 241.57 7.17"/><path class="cls-26" d="M153.3,56.05l-2.45-1.11.43-1,2.45,1.11Zm-4.36-2-2.86-1.29.43-1,2.86,1.3Zm-4.77-2.16-2.86-1.3.43-1L144.6,51Zm-4.77-2.16-2.87-1.3.43-1,2.87,1.3Zm-4.78-2.16-2.86-1.3.43-.95,2.87,1.29Zm-4.77-2.16L127,44.13l.43-1,2.86,1.29Zm-4.77-2.16L122.21,42l.44-1,2.86,1.3Zm-4.77-2.17-2.87-1.29.43-1,2.87,1.3Zm-4.78-2.16-2.86-1.29.43-1L116,38Zm-4.77-2.16-2.86-1.3.43-.95,2.86,1.3ZM106,34.62l-2.87-1.3.44-1,2.86,1.29Z"/><path class="cls-26" d="M50.8,56.13l-.63-.84,1.3-1,.62.84Zm3-2.21-.62-.84,2.53-1.87.62.84ZM58,50.8,57.36,50l2.52-1.87.63.84Zm4.21-3.11-.62-.85L64.09,45l.63.84Zm4.21-3.12-.62-.85,2.52-1.87.63.84Zm4.21-3.12L70,40.6l2.52-1.87.63.84Zm4.21-3.12-.62-.85,2.52-1.87.63.84ZM79,35.21l-.62-.85,2.52-1.87.63.84Z"/><polygon class="cls-24" points="43.45 86.95 25.97 79.05 25.97 58.03 43.45 65.93 43.45 86.95"/><polygon class="cls-25" points="43.45 86.95 60.93 79.05 60.93 58.03 43.45 65.93 43.45 86.95"/><polygon class="cls-9" points="25.97 58.03 43.45 65.93 60.93 58.03 43.45 50.86 25.97 58.03"/><path class="cls-26" d="M152.47,61l-.38-1,.09,0,.38,1Zm2-.8-.39-1L157,58l.39,1Zm4.87-1.94-.39-1,2.92-1.16.39,1Zm4.87-1.93-.39-1,2.92-1.16.39,1Zm4.87-1.94-.39-1,2.92-1.16.39,1ZM174,52.41l-.39-1,2.92-1.16.39,1Zm4.87-1.94-.39-1,2.92-1.16.39,1Zm4.87-1.93-.39-1,2.92-1.16.39,1Zm4.86-1.94-.38-1,2.92-1.16.39,1Zm4.87-1.93-.38-1L196,42.53l.39,1Zm4.87-1.94-.38-1,2.92-1.16.38,1Zm4.87-1.93-.38-1,2.92-1.16.38,1Zm4.87-1.93-.39-1,2.93-1.16.38,1Zm4.87-1.94-.39-1,2.93-1.16.38,1ZM217.81,35l-.39-1,2.92-1.16.39,1Zm4.87-1.94-.39-1,2.92-1.16.39,1Zm4.87-1.93-.39-1L230.08,29l.39,1Zm4.87-1.94-.39-1L235,27.06l.39,1Zm4.87-1.93-.39-1,2.92-1.16.39,1Zm4.87-1.94-.39-1,2.92-1.16.39,1ZM247,23.39l-.38-1,2.92-1.16.39,1Z"/><polygon class="cls-24" points="170 89.78 134.56 73.77 134.56 31.15 170 47.16 170 89.78"/><polygon class="cls-25" points="170 89.78 205.44 73.77 205.44 31.15 170 47.16 170 89.78"/><polygon class="cls-9" points="134.56 31.15 170 47.16 205.44 31.15 170 16.61 134.56 31.15"/><path class="cls-26" d="M228.63,79.36l-2.87-1.28.43-1,2.87,1.28Zm-4.78-2.14L221,75.93l.43-1,2.87,1.28Zm-4.78-2.14-2.87-1.29.43-1,2.86,1.28Zm-4.79-2.14-2.87-1.29.43-1L214.71,72ZM209.5,70.8l-2.87-1.29.43-1,2.87,1.29Zm-4.78-2.15-2.87-1.28.43-1,2.87,1.29Zm-4.78-2.14-2.87-1.28.43-1,2.87,1.29Zm-4.78-2.14-2.87-1.28.43-1,2.86,1.29Zm-4.79-2.14L187.51,61l.42-1,2.87,1.28Z"/><path class="cls-26" d="M123.55,79.72l-.57-.88,2.64-1.71.57.88Zm4.4-2.85-.57-.88L130,74.28l.57.88ZM132.34,74l-.57-.88,2.64-1.71.57.88Zm4.4-2.85-.57-.88,2.64-1.71.57.88Zm4.4-2.85-.57-.88,2.63-1.71.57.88Zm4.39-2.85-.57-.88,2.64-1.71.57.88Zm4.4-2.85-.57-.88L152,60l.57.88Z"/><polygon class="cls-24" points="111.43 124.7 87.2 113.75 87.2 84.6 111.43 95.55 111.43 124.7"/><polygon class="cls-25" points="111.43 124.7 135.67 113.75 135.67 84.6 111.43 95.55 111.43 124.7"/><polygon class="cls-9" points="87.2 84.6 111.43 95.55 135.67 84.6 111.43 74.66 87.2 84.6"/><polygon class="cls-21" points="242.18 99.47 217.94 88.52 217.94 59.38 242.18 70.33 242.18 99.47"/><polygon class="cls-22" points="242.18 99.47 266.41 88.52 266.41 59.38 242.18 70.33 242.18 99.47"/><polygon class="cls-23" points="217.94 59.38 242.18 70.33 266.41 59.38 242.18 49.43 217.94 59.38"/><path class="cls-18" d="M263.75,143.87A3.46,3.46,0,0,1,261,145.1a12.26,12.26,0,0,1-1.21-.22,2.13,2.13,0,0,1-.88-.36.84.84,0,0,1-.3-.88c.15-.44.68-.56,1.08-.79a5.91,5.91,0,0,0,1.17-1.27c.88-1,2.06-1.08,3.18-1.6a5.06,5.06,0,0,1,.71.74c.41.45.45.55.22,1.13A6.33,6.33,0,0,1,263.75,143.87Z"/><path class="cls-19" d="M271.42,110.43l9.11,13.87a2.2,2.2,0,0,1,.32,1.58l-1,5.69a3.86,3.86,0,0,1-1.6,2.51l-13.52,9.36L261.93,141l9.92-12.54-.38-7.93Z"/></g></g></g></svg>